<?xml version="1.0" standalone="no"?><!DOCTYPE svg PUBLIC "-//W3C//DTD SVG 1.1//EN" "http://www.w3.org/Graphics/SVG/1.1/DTD/svg11.dtd"><svg t="1714367882002" class="icon" viewBox="0 0 1024 1024" version="1.1" xmlns="http://www.w3.org/2000/svg" p-id="1708" xmlns:xlink="http://www.w3.org/1999/xlink" width="200" height="200"><path d="M277.60768 1024H149.60768a21.333333 21.333333 0 0 1-21.333333-21.333333V640h42.666666v341.333333h85.333334v-170.666666h42.666666v192a21.333333 21.333333 0 0 1-21.333333 21.333333zM1002.941013 746.666667c-51.648 0-149.333333-26.752-149.333333-128h42.666667c0 61.376 54.144 78.613333 85.333333 83.456V554.666667c0-69.376-39.082667-128-85.333333-128-57.813333 0-106.666667 29.312-106.666667 64h-42.666667c0-59.733333 65.6-106.666667 149.333334-106.666667 70.592 0 128 76.565333 128 170.666667v170.666666a21.333333 21.333333 0 0 1-21.333334 21.333334z" p-id="1709" fill="#515151"></path><path d="M874.941013 1024h-128a21.333333 21.333333 0 0 1-21.333333-21.333333v-149.333334H512.274347v149.333334a21.333333 21.333333 0 0 1-21.333334 21.333333h-128a21.333333 21.333333 0 0 1-21.333333-21.333333v-152.810667a276.458667 276.458667 0 0 1-71.978667-21.482667 234.901333 234.901333 0 0 1-140.16-186.24C128.722347 634.048 128.274347 626.346667 128.274347 618.666667v-42.666667h42.666666v42.666667c0 6.4 0.405333 12.8 0.981334 19.2a192.490667 192.490667 0 0 0 115.456 151.765333 234.496 234.496 0 0 0 77.354666 20.096 21.333333 21.333333 0 0 1 19.541334 21.333333V981.333333h85.333333v-149.333333a21.333333 21.333333 0 0 1 21.333333-21.333333h256a21.333333 21.333333 0 0 1 21.333334 21.333333v149.333333h85.333333V576a64.256 64.256 0 0 0-64-64H533.60768a64 64 0 0 1-64-64V192a21.333333 21.333333 0 0 0-21.333333-21.333333h-21.333334a21.333333 21.333333 0 0 1-21.333333-21.333334V108.330667l-72 57.6A21.205333 21.205333 0 0 1 320.274347 170.666667H149.60768a106.666667 106.666667 0 0 0 0 213.333333 21.333333 21.333333 0 0 1 21.333333 21.333333v42.666667H128.274347v-22.848A149.333333 149.333333 0 0 1 149.60768 128h163.157333l100.885334-80.682667A21.333333 21.333333 0 0 1 448.274347 64v64a64 64 0 0 1 64 64v256a21.333333 21.333333 0 0 0 21.333333 21.333333h256a106.944 106.944 0 0 1 106.666667 106.666667v426.666667a21.333333 21.333333 0 0 1-21.333334 21.333333z" p-id="1710" fill="#515151"></path><path d="M149.60768 426.666667v-42.666667a5.248 5.248 0 0 0-2.474667 0.533333C154.130347 380.309333 170.941013 343.466667 170.941013 277.333333s-16.810667-102.976-23.808-107.2A5.248 5.248 0 0 0 149.60768 170.666667V128c44.202667 0 64 75.008 64 149.333333s-19.797333 149.333333-64 149.333334zM533.60768 512v-42.666667c48.768 0 81.066667-16.917333 96-50.282666a121.429333 121.429333 0 0 0 9.984-39.701334C602.27968 363.178667 576.274347 306.325333 576.274347 234.666667c0-85.482667-33.792-149.333333-64-149.333334h-85.333334V42.666667h85.333334c60.821333 0 106.666667 82.538667 106.666666 192 0 65.109333 25.28 106.666667 42.666667 106.666666a21.333333 21.333333 0 0 1 21.333333 21.333334 175.957333 175.957333 0 0 1-14.549333 74.005333C653.074347 470.890667 617.234347 512 533.60768 512zM362.941013 256h-42.666666a21.333333 21.333333 0 0 0-42.666667 0h-42.666667a64 64 0 0 1 128 0zM746.941013 917.333333h128v42.666667h-128zM362.941013 917.333333h128v42.666667h-128zM149.60768 917.333333h128v42.666667H149.60768zM236.050347 156.074667l-42.666667-128A21.333333 21.333333 0 0 1 220.349013 1.109333l192 64-13.397333 40.533334-151.466667-50.517334 29.162667 87.466667z" p-id="1711" fill="#515151"></path><path d="M149.60768 597.333333a85.333333 85.333333 0 1 1 85.333333-85.333333 85.333333 85.333333 0 0 1-85.333333 85.333333z m0-128a42.666667 42.666667 0 1 0 42.666667 42.666667 42.666667 42.666667 0 0 0-42.666667-42.666667zM1002.941013 746.666667c-50.410667 0-62.272-68.266667-74.837333-140.416-7.616-43.904-19.2-110.208-38.570667-116.693334a33.578667 33.578667 0 0 0-25.92-1.194666 27.178667 27.178667 0 0 0-9.237333 17.92 38.4 38.4 0 0 0-0.768 5.930666L810.941013 512a71.658667 71.658667 0 0 1 1.472-13.333333 65.578667 65.578667 0 0 1 29.184-46.933334 71.509333 71.509333 0 0 1 61.44-2.688c43.584 14.506667 55.018667 80.234667 67.114667 149.824C976.061013 633.045333 988.39168 704 1002.941013 704zM641.789013 449.258667c-112.874667 0-141.589333-132.778667-157.184-204.8a252.096 252.096 0 0 0-10.112-39.018667l31.530667-28.522667c9.344 9.301333 12.949333 24.661333 20.266667 58.517334 19.2 88.576 44.437333 174.933333 121.6 170.986666a70.890667 70.890667 0 0 0 10.453333-0.832l6.4 42.154667a106.666667 106.666667 0 0 1-15.765333 1.322667q-3.605333 0.192-7.189334 0.192z" p-id="1712" fill="#515151"></path></svg>